<svg id="Icons" xmlns="http://www.w3.org/2000/svg" viewBox="0 0 82.5 82.5"><defs><style>.cls-1{fill:#0076be;}</style></defs><path class="cls-1" d="M64.76074,59.03125v-.65137a3.43553,3.43553,0,0,0-2.23181-3.20855,3.39609,3.39609,0,0,0,.20935-1.14008v-.65137a3.44214,3.44214,0,0,0-3.4375-3.43847H51.13434a21.25,21.25,0,1,0-19.79212,0H23.66211a3.443,3.443,0,0,0-3.43848,3.43847v.65137a3.43455,3.43455,0,0,0,2.23224,3.20758,3.39637,3.39637,0,0,0-.20978,1.141v.65137a3.39559,3.39559,0,0,0,.21149,1.14661,3.43691,3.43691,0,0,0-2.21149,3.202v.65137a3.43652,3.43652,0,0,0,2.19123,3.19482,3.39694,3.39694,0,0,0-.21369,1.15381v.65137a3.44215,3.44215,0,0,0,3.43848,3.4375H61.30078a3.44131,3.44131,0,0,0,3.4375-3.4375v-.65137A3.43759,3.43759,0,0,0,62.54742,65.184a3.39822,3.39822,0,0,0,.21332-1.15277v-.65137a3.39733,3.39733,0,0,0-.21155-1.14721A3.43506,3.43506,0,0,0,64.76074,59.03125ZM22.48828,31.15137a18.75,18.75,0,1,1,18.75,18.75A18.77113,18.77113,0,0,1,22.48828,31.15137ZM59.59351,59.96875c-.0907-.0072-.17774-.02734-.27027-.02734H25.54944a.92758.92758,0,0,1-.80335-.91016v-.65137a.9279.9279,0,0,1,.80335-.91113H59.30078c.09265,0,.17969-.02014.27051-.02734h1.752a.9392.9392,0,0,1,.9375.93847v.65137a.939.939,0,0,1-.9375.9375Zm.66723,3.41113v.65137a.92745.92745,0,0,1-.80255.91016H25.66211c-.09253,0-.17957.02014-.27026.02734H23.68457a.93921.93921,0,0,1-.93848-.9375v-.65137a.93941.93941,0,0,1,.93848-.93847h1.72949c.09082.0072.17786.02734.27051.02734H59.45819A.92777.92777,0,0,1,60.26074,63.37988Zm-37.53711-10a.93941.93941,0,0,1,.93848-.93847H59.30078a.9392.9392,0,0,1,.9375.93847v.65137a.92745.92745,0,0,1-.80255.91016H25.68457c-.09253,0-.17957.02014-.27026.02734h-1.7522a.93921.93921,0,0,1-.93848-.9375ZM62.23828,69.03125a.939.939,0,0,1-.9375.9375H25.66211a.93921.93921,0,0,1-.93848-.9375v-.65137a.9279.9279,0,0,1,.80335-.91113H59.32324c.09265,0,.17969-.02014.27051-.02734h1.707a.9392.9392,0,0,1,.9375.93847Z"/><path class="cls-1" d="M43.81543,44.96191a1.25,1.25,0,1,0,0-2.5A11.26365,11.26365,0,0,1,33.21826,34.959h8.09717a1.25,1.25,0,0,0,0-2.5H32.6355a10.6359,10.6359,0,0,1-.00031-2.50195h8.68024a1.25,1.25,0,0,0,0-2.5H33.21777A11.26341,11.26341,0,0,1,43.81543,19.9541a1.25,1.25,0,0,0,0-2.5A13.76879,13.76879,0,0,0,30.59454,27.457h-1.784a1.25,1.25,0,0,0,0,2.5h1.31433c-.03736.41235-.06336.82807-.06336,1.25,0,.42261.026.839.06348,1.25195H28.81055a1.25,1.25,0,0,0,0,2.5h1.78436A13.76928,13.76928,0,0,0,43.81543,44.96191Z"/></svg>