<svg xmlns="http://www.w3.org/2000/svg" xmlns:xlink="http://www.w3.org/1999/xlink" viewBox="0 0 140 140"><defs><style>.cls-1{fill:#fff;}.cls-1,.cls-2,.cls-4{fill-rule:evenodd;}.cls-2{fill:#dde4e3;}.cls-3{mask:url(#mask);}.cls-4{fill:#2167ae;}</style><mask id="mask" x="-1.09" y="0" width="140" height="140" maskUnits="userSpaceOnUse"><g id="mask-2"><path id="path-1" class="cls-1" d="M68.91,0h0a70,70,0,0,1,70,70h0a70,70,0,0,1-70,70h0a70,70,0,0,1-70-70h0A70,70,0,0,1,68.91,0Z"/></g></mask></defs><g id="Circle"><g id="Mask-2-2" data-name="Mask"><g id="path-1-2" data-name="path-1"><path class="cls-2" d="M70,0h0a70,70,0,0,1,70,70h0a70,70,0,0,1-70,70h0A70,70,0,0,1,0,70H0A70,70,0,0,1,70,0Z"/></g></g></g><g id="Design"><g class="cls-3"><g id="Group"><g id="Logo_z" data-name="Logo/z"><g id="Path"><path class="cls-4" d="M69.86,26A44.5,44.5,0,0,0,34.52,97.48l36.95-48.6H63.55a61.64,61.64,0,0,0-11,.84A11.81,11.81,0,0,0,48,51.58a18,18,0,0,0-4.52,5.36c-.13.26-.34.63-.59,1.15L40.7,57.6l3.63-14h46.3L53.83,92.89a49.31,49.31,0,0,1,5.29-.26c1.5,0,3.76,0,6.81.27l6.51.38c2.37.14,4.34.23,5.84.23A25.28,25.28,0,0,0,86,92.58a17.84,17.84,0,0,0,4.77-2.31,21.79,21.79,0,0,0,6.59-7.53c.15-.27.39-.73.67-1.32l2,.51a30.21,30.21,0,0,1-2,5.55,22.85,22.85,0,0,1-7.29,9.64A17.79,17.79,0,0,1,80,100.67h-.64a78.84,78.84,0,0,1-12.71-1.4,96.29,96.29,0,0,0-15-1.53,44.15,44.15,0,0,0-7.26.57,23.47,23.47,0,0,0-7.33,2.21A44.48,44.48,0,1,0,69.86,26"/></g></g></g></g></g></svg>